<?xml version="1.0" encoding="UTF-8"?>
<svg width="25px" height="25px" viewBox="0 0 25 25" version="1.1" xmlns="http://www.w3.org/2000/svg" xmlns:xlink="http://www.w3.org/1999/xlink">
    <defs></defs>
    <g id="ico-menu" stroke="none" stroke-width="1" fill="none" fill-rule="evenodd">
        <path d="M21.1428776,17.1428716 L21.1428776,18.5714447 C21.1428776,18.9620702 20.8192165,19.2857313 20.428591,19.2857313 L4.71428657,19.2857313 C4.3236611,19.2857313 4,18.9620702 4,18.5714447 L4,17.1428716 C4,16.7522462 4.3236611,16.4285851 4.71428657,16.4285851 L20.428591,16.4285851 C20.8192165,16.4285851 21.1428776,16.7522462 21.1428776,17.1428716 Z M21.1428776,11.4285791 L21.1428776,12.8571522 C21.1428776,13.2477777 20.8192165,13.5714388 20.428591,13.5714388 L4.71428657,13.5714388 C4.3236611,13.5714388 4,13.2477777 4,12.8571522 L4,11.4285791 C4,11.0379536 4.3236611,10.7142925 4.71428657,10.7142925 L20.428591,10.7142925 C20.8192165,10.7142925 21.1428776,11.0379536 21.1428776,11.4285791 Z M21.1428776,5.71428657 L21.1428776,7.1428597 C21.1428776,7.53348516 20.8192165,7.85714626 20.428591,7.85714626 L4.71428657,7.85714626 C4.3236611,7.85714626 4,7.53348516 4,7.1428597 L4,5.71428657 C4,5.3236611 4.3236611,5 4.71428657,5 L20.428591,5 C20.8192165,5 21.1428776,5.3236611 21.1428776,5.71428657 Z" id="menu" fill="#FFFFFF"></path>
    </g>
</svg>
