<?xml version="1.0" encoding="UTF-8"?>
<svg width="25px" height="25px" viewBox="0 0 25 25" version="1.1" xmlns="http://www.w3.org/2000/svg" xmlns:xlink="http://www.w3.org/1999/xlink">
    <defs></defs>
    <g id="ico-close" stroke="none" stroke-width="1" fill="none" fill-rule="evenodd">
        <path d="M19.2589444,16.6696556 C19.2589444,16.9486738 19.1473371,17.227692 18.946444,17.4285851 L17.4285851,18.946444 C17.227692,19.1473371 16.9486738,19.2589444 16.6696556,19.2589444 C16.3906374,19.2589444 16.1116192,19.1473371 15.9107261,18.946444 L12.6294722,15.6651901 L9.34821828,18.946444 C9.14732518,19.1473371 8.86830699,19.2589444 8.5892888,19.2589444 C8.31027061,19.2589444 8.03125242,19.1473371 7.83035932,18.946444 L6.31250037,17.4285851 C6.11160728,17.227692 6,16.9486738 6,16.6696556 C6,16.3906374 6.11160728,16.1116192 6.31250037,15.9107261 L9.59375428,12.6294722 L6.31250037,9.34821828 C6.11160728,9.14732518 6,8.86830699 6,8.5892888 C6,8.31027061 6.11160728,8.03125242 6.31250037,7.83035932 L7.83035932,6.31250037 C8.03125242,6.11160728 8.31027061,6 8.5892888,6 C8.86830699,6 9.14732518,6.11160728 9.34821828,6.31250037 L12.6294722,9.59375428 L15.9107261,6.31250037 C16.1116192,6.11160728 16.3906374,6 16.6696556,6 C16.9486738,6 17.227692,6.11160728 17.4285851,6.31250037 L18.946444,7.83035932 C19.1473371,8.03125242 19.2589444,8.31027061 19.2589444,8.5892888 C19.2589444,8.86830699 19.1473371,9.14732518 18.946444,9.34821828 L15.6651901,12.6294722 L18.946444,15.9107261 C19.1473371,16.1116192 19.2589444,16.3906374 19.2589444,16.6696556 Z" id="ï€" fill="#FFFFFF"></path>
    </g>
</svg>
